<svg xmlns="http://www.w3.org/2000/svg" viewBox="0 0 3451.78 1189.8"><defs><style>.e,.f{stroke-miterlimit:10;stroke-width:5px}.e{fill:#2d519e;stroke:#2d519e}.f{stroke:#000}</style></defs><g id="b"><g id="c"><path class="f" d="M680.38 763.7h-140.7l-190.6-583.4-193.5 583.4H3.48L259.18 2.5h165.1l256.1 761.2zM617.48 2.5h140.7l190.6 583.4 193.5-583.4h152.1l-255.7 761.2h-165.1L617.48 2.5zM1964.28 2.5h1269.5v117.3h-1269.5z"/><path class="f" d="M2207.68 119.7h134.9V772h-134.9zM2840.98 119.7h146.7V772h-146.7zM3302.48 2.5h146.8V772h-146.8z"/><path style="fill:none" d="M645.08 920.9h2175.3v268.9H645.08z"/><g style="isolation:isolate"><path d="M768.28 1062.57c0-96.09 54.54-127.25 115.01-127.25 31.16 0 54.91 7.42 79.39 21.89l-19.66 38.96c-12.61-8.16-31.91-17.07-57.13-17.07-44.15 0-62.7 30.05-62.7 80.51 0 54.17 24.86 81.62 66.78 81.62 24.11 0 39.33-7.42 54.17-16.32l20.41 37.1c-24.86 14.84-49.34 24.12-79.77 24.12-84.96 0-116.49-53.42-116.49-123.54zM977.15 1059.98c0-86.82 57.88-124.66 122.43-124.66 79.02 0 119.46 52.31 119.46 126.14 0 86.81-57.13 124.66-122.06 124.66-79.02 0-119.83-52.31-119.83-126.14zm187.73 1.85c0-51.2-21.89-83.48-65.3-83.48s-68.26 31.91-68.26 81.25 21.89 83.48 65.67 83.48 67.89-31.91 67.89-81.25zM1519.18 940.51v240.41h-51.94v-149.51c-3.34 9.27-8.16 20.03-16.32 35.99l-41.55 83.85h-40.44l-42.29-83.85c-8.16-16.32-12.99-27.08-16.32-35.99v149.51h-51.2V940.51h54.17l54.91 105.36c8.16 15.95 16.32 34.5 20.78 47.49 4.08-13.36 12.61-31.54 20.78-47.49l55.28-105.36h54.17zM1831.93 940.51v240.41h-51.94v-149.51c-3.34 9.27-8.16 20.03-16.32 35.99l-41.55 83.85h-40.44l-42.29-83.85c-8.16-16.32-12.99-27.08-16.32-35.99v149.51h-51.2V940.51h54.17l54.91 105.36c8.16 15.95 16.32 34.5 20.78 47.49 4.08-13.36 12.61-31.54 20.78-47.49l55.28-105.36h54.17zM2047.1 1137.89v43.04h-162.5V940.52h160.64v42.67h-107.96v54.17h93.12l-5.94 42.29h-87.19v58.25h109.82zM2280.45 1177.95v2.97h-58.25l-59.73-87.56h-20.03v87.56h-52.68V940.51h80.51c65.67 0 95.35 33.02 95.35 74.94 0 32.65-16.32 58.99-49.71 70.86l64.55 91.64zm-138.01-124.29h22.63c27.83 0 46.38-9.28 46.38-36.73 0-23-15.58-34.13-40.81-34.13h-28.2v70.86zM2294.55 1062.57c0-96.09 54.54-127.25 115.01-127.25 31.16 0 54.91 7.42 79.39 21.89l-19.66 38.96c-12.61-8.16-31.91-17.07-57.13-17.07-44.15 0-62.7 30.05-62.7 80.51 0 54.17 24.86 81.62 66.78 81.62 24.12 0 39.33-7.42 54.17-16.32l20.41 37.1c-24.86 14.84-49.34 24.12-79.77 24.12-84.96 0-116.49-53.42-116.49-123.54zM2684.09 1137.89v43.04h-162.5V940.52h160.64v42.67h-107.96v54.17h93.12l-5.94 42.29h-87.19v58.25h109.82z"/></g><path class="e" d="M1353.18 2.5h562.9v117.3h-562.9zM1240.28 322h675.7v117.3h-675.7zM1125.98 656.2h773.9V772h-773.9z"/><path d="M3.48 1016.3h714.7v85H3.48zM2736.28 1014.6h714.7v85h-714.7z"/></g></g></svg>