<svg role="img" id="Layer_2" xmlns="http://www.w3.org/2000/svg" viewBox="0 0 40 46" class="logo-color"><title>Compass Digital logo</title><defs><style>.blue{fill:#003396;}.white{fill:#fff;}.teal{fill:#10f8f9;}.teal-dark{fill:#13d6e5;}.light-blue{fill:#0c76d8;}</style></defs><g id="Layer_1-2"><g><g><polygon class="blue" points="0 34.29 0 34.29 19.8 22.86 0 11.43 0 34.29"></polygon><polygon class="teal" points="39.6 34.29 39.6 34.29 19.8 22.86 39.6 11.43 39.6 34.29"></polygon><polygon class="light-blue" points="19.8 45.72 19.8 45.72 19.8 22.86 0 34.29 19.8 45.72"></polygon><polygon class="teal-dark" points="39.6 11.43 39.6 11.43 19.8 22.86 19.8 0 39.6 11.43"></polygon><polygon class="teal-dark" points="39.6 34.29 39.6 34.29 19.8 22.86 19.8 45.72 39.6 34.29"></polygon><polygon class="light-blue" points="19.8 0 19.8 0 19.8 22.86 0 11.43 19.8 0"></polygon></g></g></g></svg>